<svg xmlns="http://www.w3.org/2000/svg" width="218.14" height="45.399" viewBox="0 0 218.14 45.399">
  <path d="M21.632 7.305a3.017 3.017 0 0 0 .116-.928 2.253 2.253 0 0 0-.493-1.508 7.537 7.537 0 0 0-1.536-1.271 6.9 6.9 0 0 1-1.247-1.1 1.161 1.161 0 0 1-.2-1.1 1.435 1.435 0 0 1 .87-1.1 6.142 6.142 0 0 1 2.2-.29h16.471a3.65 3.65 0 0 1 1.887.4 1.2 1.2 0 0 1 .667 1.044 2.266 2.266 0 0 1-.174.754 2.289 2.289 0 0 1-.493.724 2.707 2.707 0 0 1-.58.465 1.768 1.768 0 0 0-.377.261 5.957 5.957 0 0 0-1.508 1.16 5.181 5.181 0 0 0-.986 1.972L30.564 26.85q-1.74 6.148-5.916 9.134T13.8 38.971a19.517 19.517 0 0 1-7.568-1.306 10.545 10.545 0 0 1-4.669-3.508A8.134 8.134 0 0 1 0 29.344a9.033 9.033 0 0 1 .348-2.494 7.143 7.143 0 0 1 2.581-3.944 6.772 6.772 0 0 1 4.089-1.334 5.073 5.073 0 0 1 4 1.566 5.8 5.8 0 0 1 1.392 4 8.82 8.82 0 0 1-.348 2.435 5.9 5.9 0 0 1-2.61 3.6 3.962 3.962 0 0 0 2.146.58 2.672 2.672 0 0 0 2.146-1.218 10.513 10.513 0 0 0 1.566-3.422Z" fill="#f8f7f2"/>
  <path d="M49.967 14.535a4.25 4.25 0 0 1 1.566 3.48 8.035 8.035 0 0 1-.406 2.552l-5.334 17.34a5.112 5.112 0 0 0-.174 1.218 2.112 2.112 0 0 0 .29 1.189 3.647 3.647 0 0 0 .812.841 4.894 4.894 0 0 1 .58.667.776.776 0 0 1 .058.667 1.93 1.93 0 0 1-1.16 1.1 7.622 7.622 0 0 1-2.668.348H30.307a3.87 3.87 0 0 1-2.204-.495 1.1 1.1 0 0 1-.464-1.3 2.316 2.316 0 0 1 1.218-1.218 5.3 5.3 0 0 0 1.45-1.1 5.209 5.209 0 0 0 .986-2.03l5.046-16.761a2.863 2.863 0 0 0 .174-.869 1.626 1.626 0 0 0-.29-1.016 3.973 3.973 0 0 0-.87-.783 3.938 3.938 0 0 1-.812-.812 1.068 1.068 0 0 1-.058-.928q.348-1.334 3.654-2.349a23.408 23.408 0 0 1 6.9-1.015 7.762 7.762 0 0 1 4.93 1.276m2.726-12.616a4.882 4.882 0 0 1 1.508 3.621 6.154 6.154 0 0 1-.783 2.958 6.258 6.258 0 0 1-2.2 2.349 5.786 5.786 0 0 1-3.161.9 5 5 0 0 1-3.686-1.477 5.2 5.2 0 0 1-1.537-3.683 6.073 6.073 0 0 1 .759-2.871 6.4 6.4 0 0 1 2.141-2.348 5.623 5.623 0 0 1 3.189-.928 5.169 5.169 0 0 1 3.77 1.479" fill="#f8f7f2"/>
  <path d="M105.444 30.445a1.6 1.6 0 0 0-.116.7.929.929 0 0 0 .2.638.691.691 0 0 0 .552.232 1.484 1.484 0 0 0 1.188-.609q.492-.607.667-.608.29 0 .464.376a2.137 2.137 0 0 1 .174.9 5.2 5.2 0 0 1-1.1 3.277 8.339 8.339 0 0 1-3.393 2.609 12.9 12.9 0 0 1-5.365 1.016 9.621 9.621 0 0 1-6.09-1.769 5.85 5.85 0 0 1-2.32-4.727 13.378 13.378 0 0 1 1.044-4.814l3.19-8.351a3.6 3.6 0 0 0 .29-1.219 1.506 1.506 0 0 0-.491-1.192 1.733 1.733 0 0 0-1.189-.436 3.212 3.212 0 0 0-2.03.871 7.286 7.286 0 0 0-1.856 2.725l-3.19 10.382a1.6 1.6 0 0 0-.116.7.929.929 0 0 0 .2.638.692.692 0 0 0 .551.232 1.484 1.484 0 0 0 1.189-.609q.492-.607.667-.608.29 0 .464.376a2.137 2.137 0 0 1 .174.9 5.2 5.2 0 0 1-1.1 3.277 8.339 8.339 0 0 1-3.393 2.609 12.9 12.9 0 0 1-5.365 1.016 9.621 9.621 0 0 1-6.09-1.769 5.85 5.85 0 0 1-2.32-4.727 13.378 13.378 0 0 1 1.044-4.814l3.19-8.351a3.618 3.618 0 0 0 .29-1.219 1.506 1.506 0 0 0-.491-1.193 1.733 1.733 0 0 0-1.189-.436 3.273 3.273 0 0 0-2.03.841 6.164 6.164 0 0 0-1.74 2.7l-3.827 12.407a3.555 3.555 0 0 0-.232 1.219 1.994 1.994 0 0 0 .29 1.13 4.721 4.721 0 0 0 .812.9 2.836 2.836 0 0 1 .581.639.854.854 0 0 1 .058.7 1.733 1.733 0 0 1-1.1 1.1 7.863 7.863 0 0 1-2.726.348H50.638a3.722 3.722 0 0 1-2.175-.494 1.193 1.193 0 0 1-.493-1.3 2.318 2.318 0 0 1 1.218-1.218 5.267 5.267 0 0 0 1.45-1.1 5.217 5.217 0 0 0 .986-2.029l5.162-16.762a2.271 2.271 0 0 0 .116-.812 1.616 1.616 0 0 0-.261-.985 6.63 6.63 0 0 0-.841-.87 3.937 3.937 0 0 1-.812-.812 1.07 1.07 0 0 1-.058-.929q.348-1.333 3.654-2.349a23.431 23.431 0 0 1 6.9-1.014 6.266 6.266 0 0 1 4.5 1.566 5.46 5.46 0 0 1 1.6 4.291 13.881 13.881 0 0 1 5.017-4.581 12.944 12.944 0 0 1 5.713-1.276 7.79 7.79 0 0 1 5.481 1.943 7.35 7.35 0 0 1 2.337 5.065 15.268 15.268 0 0 1 5.336-5.481 12.834 12.834 0 0 1 6.206-1.537 7.783 7.783 0 0 1 5.713 2.146 7.478 7.478 0 0 1 2.175 5.568 11.133 11.133 0 0 1-.58 3.537Z" fill="#f8f7f2"/>
  <path d="M162.917 33.877a1.6 1.6 0 0 0-.116.7.929.929 0 0 0 .2.638.691.691 0 0 0 .551.232 1.487 1.487 0 0 0 1.19-.609q.492-.608.666-.608.29 0 .464.376a2.136 2.136 0 0 1 .174.9 5.2 5.2 0 0 1-1.1 3.277 8.342 8.342 0 0 1-3.394 2.609 12.9 12.9 0 0 1-5.365 1.016 9.621 9.621 0 0 1-6.09-1.769 5.849 5.849 0 0 1-2.32-4.727 13.376 13.376 0 0 1 1.044-4.814l3.19-8.351a3.6 3.6 0 0 0 .29-1.219 1.506 1.506 0 0 0-.493-1.188 1.732 1.732 0 0 0-1.182-.44 3.213 3.213 0 0 0-2.03.871 7.3 7.3 0 0 0-1.856 2.725l-3.19 10.382a1.6 1.6 0 0 0-.116.7.929.929 0 0 0 .2.638.689.689 0 0 0 .55.232 1.484 1.484 0 0 0 1.189-.609q.492-.607.667-.608.29 0 .464.376a2.124 2.124 0 0 1 .174.9 5.193 5.193 0 0 1-1.1 3.277 8.333 8.333 0 0 1-3.393 2.609 12.9 12.9 0 0 1-5.365 1.016 9.621 9.621 0 0 1-6.09-1.769 5.85 5.85 0 0 1-2.32-4.727 13.379 13.379 0 0 1 1.044-4.814l3.19-8.351a3.618 3.618 0 0 0 .29-1.219 1.506 1.506 0 0 0-.493-1.188 1.732 1.732 0 0 0-1.189-.436 3.274 3.274 0 0 0-2.03.841 6.164 6.164 0 0 0-1.74 2.7l-3.828 12.415a3.554 3.554 0 0 0-.232 1.219 1.994 1.994 0 0 0 .29 1.13 4.719 4.719 0 0 0 .812.9 2.836 2.836 0 0 1 .58.638.854.854 0 0 1 .058.7 1.733 1.733 0 0 1-1.1 1.1 7.862 7.862 0 0 1-2.726.348h-13.225a3.722 3.722 0 0 1-2.175-.494 1.193 1.193 0 0 1-.493-1.3 2.318 2.318 0 0 1 1.218-1.218 4.391 4.391 0 0 0 2.436-3.131l5.162-16.762a2.273 2.273 0 0 0 .116-.812 1.616 1.616 0 0 0-.261-.985 6.632 6.632 0 0 0-.841-.87 3.937 3.937 0 0 1-.812-.812 1.07 1.07 0 0 1-.058-.929q.348-1.333 3.654-2.349a23.434 23.434 0 0 1 6.9-1.014 6.266 6.266 0 0 1 4.495 1.566 5.46 5.46 0 0 1 1.6 4.291 13.887 13.887 0 0 1 5.017-4.581 12.947 12.947 0 0 1 5.713-1.276 7.789 7.789 0 0 1 5.476 1.941 7.347 7.347 0 0 1 2.349 5.075 15.273 15.273 0 0 1 5.336-5.481 12.836 12.836 0 0 1 6.206-1.537 7.783 7.783 0 0 1 5.713 2.146 7.478 7.478 0 0 1 2.175 5.568 11.134 11.134 0 0 1-.58 3.537Z" fill="#f8f7f2"/>
  <path d="M202.83642507 12.61546866q6.96788269-.48870833 10.25108303 1.51449024a6.728 6.728 0 0 1 3.5255605 5.45870976 7.929 7.929 0 0 1-.08477748 1.93567502 7.177 7.177 0 0 1-4.2179244 5.50860807 23.026 23.026 0 0 1-8.75052818 2.18559018 33.47 33.47 0 0 1-4.85122777.00944124q.14523583 2.85683943 1.8171372 3.8974142a7.485 7.485 0 0 0 4.5246828.83748106 10.394 10.394 0 0 0 2.5028104-.4762773q1.18604518-.38392295 3.0089936-1.12027075a7.844 7.844 0 0 1 2.0463973-.69487987q.59852966-.04197924.64855492.6712686a6.757 6.757 0 0 1-1.14362555 4.13314282 11.719 11.719 0 0 1-4.137342 3.89902567 15.359 15.359 0 0 1-6.90894375 1.97222011 15.675 15.675 0 0 1-10.20096312-2.37209854q-4.11591166-2.79888749-4.52765805-8.66946582a19.966 19.966 0 0 1 .16955495-3.87135003q.8983145-6.84462425 5.29459305-10.59640569a18.476 18.476 0 0 1 11.03362255-4.22231897Zm-3.97984124 13.29102192a2.61 2.61 0 0 0 .6073655.01253615 3.833 3.833 0 0 0 3.36129816-2.38602171 9.167 9.167 0 0 0 .81738513-4.854084q-.16261193-1.53237802-.9855902-1.47465656-.6035174.04232907-1.359119 1.06069061a10.962 10.962 0 0 0-1.40905219 2.9929193 25.7 25.7 0 0 0-1.02729966 4.64826639Z" fill="#f8f7f2"/>
  <path d="M184.87 15.986a4.25 4.25 0 0 1 1.566 3.48 8.035 8.035 0 0 1-.406 2.552l-5.334 17.34a5.112 5.112 0 0 0-.174 1.218 2.112 2.112 0 0 0 .29 1.189 3.647 3.647 0 0 0 .812.841 4.894 4.894 0 0 1 .58.667.776.776 0 0 1 .058.667 1.93 1.93 0 0 1-1.16 1.1 7.622 7.622 0 0 1-2.668.348H165.21a3.87 3.87 0 0 1-2.204-.495 1.1 1.1 0 0 1-.464-1.3 2.316 2.316 0 0 1 1.218-1.218 5.3 5.3 0 0 0 1.45-1.1 5.209 5.209 0 0 0 .986-2.03l5.046-16.761a2.863 2.863 0 0 0 .174-.869 1.626 1.626 0 0 0-.29-1.016 3.973 3.973 0 0 0-.87-.783 3.938 3.938 0 0 1-.812-.812 1.068 1.068 0 0 1-.058-.928q.348-1.334 3.654-2.349a23.408 23.408 0 0 1 6.9-1.015 7.762 7.762 0 0 1 4.93 1.276m2.726-12.616a4.882 4.882 0 0 1 1.508 3.621 6.154 6.154 0 0 1-.783 2.958 6.258 6.258 0 0 1-2.2 2.349 5.786 5.786 0 0 1-3.161.9 5 5 0 0 1-3.686-1.477 5.2 5.2 0 0 1-1.537-3.683 6.073 6.073 0 0 1 .759-2.871 6.4 6.4 0 0 1 2.141-2.348 5.623 5.623 0 0 1 3.189-.928 5.169 5.169 0 0 1 3.77 1.479" fill="#f8f7f2"/>
</svg>